<svg xmlns:xlink="http://www.w3.org/1999/xlink" xmlns="http://www.w3.org/2000/svg" viewBox="0 0 512 512" height="16" width="16" aria-label="svg_title" preserveAspectRatio="xMidYMid meet">
<title id="svg_title">Instagram Icon</title>
  <g fill="#ffffff">
    <path d="M256 49.47c67.27 0 75.23.26 101.8 1.47 24.56 1.12 37.9 5.22 46.78 8.67a78.05 78.05 0 0128.96 18.85 78.05 78.05 0 0118.85 28.97c3.45 8.87 7.55 22.21 8.67 46.77 1.21 26.57 1.47 34.54 1.47 101.8s-.25 75.24-1.47 101.8c-1.12 24.56-5.22 37.9-8.67 46.78a83.43 83.43 0 01-47.81 47.81c-8.88 3.45-22.22 7.56-46.78 8.68-26.56 1.2-34.53 1.46-101.8 1.46s-75.24-.25-101.8-1.46c-24.56-1.13-37.9-5.23-46.78-8.68a78.05 78.05 0 01-28.96-18.84 78.05 78.05 0 01-18.85-28.97c-3.45-8.88-7.55-22.21-8.67-46.78-1.22-26.56-1.47-34.53-1.47-101.8s.25-75.23 1.47-101.8c1.12-24.56 5.22-37.9 8.67-46.78a78.05 78.05 0 0118.85-28.96 78.05 78.05 0 0128.96-18.85c8.88-3.45 22.22-7.55 46.78-8.67 26.57-1.21 34.53-1.47 101.8-1.47m0-45.4c-68.42 0-77 .3-103.86 1.53-26.82 1.22-45.13 5.48-61.15 11.7a123.49 123.49 0 00-44.62 29.06A123.49 123.49 0 0017.3 90.98c-6.22 16.03-10.48 34.34-11.7 61.15C4.37 179 4.08 187.58 4.08 256s.29 77 1.52 103.87c1.22 26.81 5.48 45.12 11.71 61.15a123.49 123.49 0 0029.06 44.62 123.49 123.49 0 0044.62 29.05c16.02 6.23 34.33 10.49 61.15 11.71 26.87 1.23 35.45 1.52 103.86 1.52s77-.29 103.87-1.52c26.82-1.22 45.13-5.48 61.15-11.7a128.82 128.82 0 0073.68-73.68c6.23-16.03 10.48-34.34 11.7-61.15 1.23-26.87 1.52-35.45 1.52-103.87s-.29-77-1.51-103.87c-1.23-26.81-5.48-45.12-11.71-61.15a123.49 123.49 0 00-29.06-44.62 123.49 123.49 0 00-44.62-29.06c-16.03-6.22-34.34-10.48-61.15-11.7C333 4.37 324.42 4.08 256 4.08z"/>
    <path d="M256 126.64A129.37 129.37 0 10385.37 256 129.37 129.37 0 00256 126.63zm0 213.33A83.97 83.97 0 11339.97 256 83.97 83.97 0 01256 339.97z"/>
    <circle cx="390.48" cy="121.52" r="30.23"/>
  </g>
</svg>