<svg xmlns:xlink="http://www.w3.org/1999/xlink" xmlns="http://www.w3.org/2000/svg" viewBox="0 0 50 50" aria-label="HP OMEN Logo" width="50"  height="50" ><path fill="#1B1B1B" d="M25 0l25 25-25 25L0 25 25 0zM12.075 22.06c-1.564 0-2.836 1.271-2.836 2.835s1.272 2.836 2.836 2.836a2.839 2.839 0 0 0 2.836-2.836 2.839 2.839 0 0 0-2.836-2.836zm28.062.33h-4.839v5.256h.93v-4.325h2.979v4.325h.93v-5.255zm-8.442 0h-4.839v5.256h4.839v-.93h-3.909v-1.233h3.044v-.93h-3.044v-1.232h3.909v-.93zm-8.551-.036l-2.628 1.05-2.627-1.05v5.292h.93v-3.918l1.697.679 1.698-.68v3.919h.93v-5.292zm-11.07.656c1.04 0 1.886.846 1.886 1.885 0 1.04-.846 1.886-1.885 1.886-1.04 0-1.886-.846-1.886-1.886s.846-1.885 1.886-1.885z"></path></svg>