<svg xmlns="http://www.w3.org/2000/svg" xmlns:xlink="http://www.w3.org/1999/xlink" width="16" height="18" viewBox="0 0 16 18" version="1.1">
<g id="surface1">
<path style=" stroke:none;fill-rule:nonzero;fill:rgb(0%,94.901961%,91.764706%);fill-opacity:1;" d="M 5.367188 8.140625 L 5.367188 7.59375 C 5.164062 7.566406 4.953125 7.554688 4.746094 7.554688 C 2.195312 7.554688 0.121094 9.457031 0.121094 11.796875 C 0.121094 13.234375 0.902344 14.503906 2.09375 15.273438 C 1.296875 14.488281 0.851562 13.457031 0.851562 12.382812 C 0.851562 10.074219 2.867188 8.195312 5.367188 8.140625 "/>
<path style=" stroke:none;fill-rule:nonzero;fill:rgb(0%,94.901961%,91.764706%);fill-opacity:1;" d="M 5.492188 14.167969 C 6.570312 14.167969 7.449219 13.332031 7.488281 12.292969 L 7.492188 2.996094 L 9.234375 2.996094 C 9.199219 2.800781 9.179688 2.605469 9.179688 2.40625 L 6.796875 2.40625 L 6.792969 11.703125 C 6.753906 12.746094 5.875 13.582031 4.796875 13.582031 C 4.472656 13.582031 4.15625 13.503906 3.867188 13.355469 C 4.246094 13.867188 4.847656 14.167969 5.492188 14.167969 M 12.492188 6.152344 L 12.492188 5.632812 C 11.851562 5.636719 11.222656 5.453125 10.6875 5.113281 C 11.160156 5.640625 11.792969 6.003906 12.492188 6.152344 "/>
<path style=" stroke:none;fill-rule:nonzero;fill:rgb(100%,0%,30.980392%);fill-opacity:1;" d="M 10.617188 5.246094 C 10.09375 4.664062 9.804688 3.917969 9.804688 3.144531 L 9.167969 3.144531 C 9.335938 4.007812 9.859375 4.769531 10.617188 5.246094 M 4.742188 9.78125 C 3.640625 9.785156 2.746094 10.648438 2.746094 11.71875 C 2.746094 12.441406 3.160156 13.101562 3.816406 13.433594 C 3.570312 13.105469 3.4375 12.710938 3.4375 12.304688 C 3.4375 11.234375 4.332031 10.367188 5.433594 10.367188 C 5.640625 10.367188 5.835938 10.402344 6.023438 10.457031 L 6.023438 8.105469 C 5.828125 8.078125 5.628906 8.0625 5.433594 8.0625 C 5.398438 8.0625 5.363281 8.066406 5.332031 8.066406 L 5.332031 9.871094 C 5.140625 9.8125 4.941406 9.78125 4.742188 9.78125 "/>
<path style=" stroke:none;fill-rule:nonzero;fill:rgb(100%,0%,30.980392%);fill-opacity:1;" d="M 12.171875 6.449219 L 12.171875 8.246094 C 10.988281 8.246094 9.835938 7.886719 8.871094 7.210938 L 8.871094 11.90625 C 8.871094 14.25 6.910156 16.15625 4.5 16.15625 C 3.570312 16.15625 2.703125 15.871094 1.996094 15.386719 C 2.824219 16.253906 3.980469 16.742188 5.191406 16.742188 C 7.601562 16.742188 9.5625 14.835938 9.5625 12.492188 L 9.5625 7.800781 C 10.527344 8.472656 11.683594 8.832031 12.867188 8.832031 L 12.867188 6.523438 C 12.632812 6.523438 12.402344 6.5 12.171875 6.449219 "/>
<path style=" stroke:none;fill-rule:nonzero;fill:rgb(100%,100%,100%);fill-opacity:1;" d="M 9.109375 11.75 L 9.109375 7.050781 C 10.101562 7.726562 11.28125 8.089844 12.492188 8.085938 L 12.492188 6.289062 C 11.78125 6.144531 11.136719 5.78125 10.648438 5.25 C 9.871094 4.769531 9.335938 4.007812 9.167969 3.144531 L 7.386719 3.144531 L 7.382812 12.410156 C 7.34375 13.449219 6.445312 14.28125 5.34375 14.28125 C 4.6875 14.28125 4.070312 13.980469 3.6875 13.472656 C 3.015625 13.136719 2.59375 12.472656 2.59375 11.75 C 2.59375 10.675781 3.507812 9.808594 4.636719 9.804688 C 4.847656 9.804688 5.046875 9.839844 5.238281 9.898438 L 5.238281 8.082031 C 2.820312 8.136719 0.871094 10.023438 0.871094 12.335938 C 0.871094 13.457031 1.328125 14.476562 2.070312 15.234375 C 2.828125 15.738281 3.722656 16.007812 4.636719 16.007812 C 7.101562 16.007812 9.109375 14.097656 9.109375 11.75 "/>
</g>
</svg>